<svg xmlns="http://www.w3.org/2000/svg" viewBox="0 0 79.12 59.93"><defs><style>.cls-1,.cls-6{fill:#fce100;}.cls-10,.cls-2,.cls-4,.cls-5{fill:#fff;}.cls-10,.cls-3,.cls-4,.cls-5,.cls-6{isolation:isolate;}.cls-4,.cls-5{font-size:13.12px;}.cls-4,.cls-5,.cls-6{font-family:NirmalaUI-Bold, Nirmala UI;font-weight:700;}.cls-5{letter-spacing:-0.05em;}.cls-6{font-size:9.38px;}.cls-7{letter-spacing:-0.01em;}.cls-8{letter-spacing:0.01em;}.cls-9{letter-spacing:-0.03em;}.cls-10{font-size:5.14px;font-family:SegoePrint, Segoe Print;}</style></defs><g id="Layer_2" data-name="Layer 2"><g id="Layer_1-2" data-name="Layer 1"><path class="cls-1" d="M15.29,14S17.23,0,39.41,0c2.08.07,7.78.64,9.66,1.44-.56,1.33-1.27,2.82-1.27,2.82S22.11-1.54,15.29,14"/><path class="cls-2" d="M47.21,5.92S40.77,4.39,36.69,4.61c-1.32,0-18.78,0-20.23,10.06,0,.3,0,4.14,7.33,5.34,0,0-5.72-1.5-5.38-4.74.05-.64,4.42-10.3,27.4-6.48Z"/><path class="cls-2" d="M13.71,19.25l-1.36,3.29s25,6.44,28.28-6.24c1-5-12.35-3.42-12.35-3.42s14.29,0,8.22,5.16C35,19.09,31.62,23.6,13.71,19.25"/><path class="cls-1" d="M11.74,23.89s7.81,2.26,13.35,1.85S41.83,24.64,41,15.28c0,0,6.19,12.78-16.58,13.54-4.68-.25-10.5-.56-14.26-1.77Z"/><path class="cls-1" d="M51.39,24.55s23.11,4.11,22,16.39c0,0,10-11.08-22-16.39"/><path class="cls-2" d="M57.46,25.54s18.05,1.77,17.38,9.75c0,0,9.13-8.33-17.38-9.75"/><g class="cls-3"><text class="cls-4" transform="translate(0 41.08) scale(1.07 1)">G</text><text class="cls-5" transform="translate(9.98 41.08) scale(1.07 1)">A</text><text class="cls-4" transform="translate(18.85 41.08) scale(1.07 1)">T</text><text class="cls-4" transform="translate(27.08 41.08) scale(1.07 1)">E</text><text class="cls-4" transform="translate(34.75 41.08) scale(1.07 1)">W</text><text class="cls-5" transform="translate(48.35 41.08) scale(1.07 1)">A</text><text class="cls-4" transform="translate(57.16 41.08) scale(1.07 1)">Y</text><text class="cls-6" transform="translate(0 49.88) scale(1.07 1)">O<tspan class="cls-7" x="7.12" y="0">v</tspan><tspan x="12.15" y="0">e</tspan><tspan class="cls-8" x="17.22" y="0">r</tspan><tspan x="21.02" y="0">seas </tspan><tspan class="cls-9" x="41.99" y="0">S</tspan><tspan x="46.95" y="0">tudies</tspan></text></g><g class="cls-3"><text class="cls-10" transform="translate(22.51 57.39) scale(1.07 1)">T</text><text class="cls-10" transform="translate(25.94 57.39) scale(1.07 1)">aking you fo</text><text class="cls-10" transform="translate(60.07 57.39) scale(1.07 1)">r</text><text class="cls-10" transform="translate(63.02 57.39) scale(1.07 1)">ward</text></g></g></g></svg>